<?xml version="1.0" standalone="no"?>
<!DOCTYPE svg PUBLIC "-//W3C//DTD SVG 20010904//EN"
 "http://www.w3.org/TR/2001/REC-SVG-20010904/DTD/svg10.dtd">
<svg version="1.0" xmlns="http://www.w3.org/2000/svg"
 width="128.000000pt" height="128.000000pt" viewBox="0 0 128.000000 128.000000"
 preserveAspectRatio="xMidYMid meet">
<metadata>
Created by potrace 1.14, written by Peter Selinger 2001-2017
</metadata>
<g transform="translate(0.000000,128.000000) scale(0.100000,-0.100000)"
fill="#000000" stroke="none">
<path d="M0 640 l0 -640 640 0 640 0 0 640 0 640 -640 0 -640 0 0 -640z m470
240 c0 -39 -1 -40 -35 -40 l-35 0 0 -200 0 -200 35 0 c34 0 35 -1 35 -40 l0
-40 -120 0 -120 0 0 40 c0 39 1 40 35 40 l35 0 0 200 0 200 -35 0 c-34 0 -35
1 -35 40 l0 40 120 0 120 0 0 -40z m300 0 c0 -36 -2 -40 -25 -40 -14 0 -25 -6
-25 -12 1 -31 108 -331 113 -318 8 19 107 323 107 326 0 2 -12 4 -27 6 -23 3
-28 8 -31 41 l-3 37 116 0 116 0 -3 -37 c-3 -33 -7 -38 -30 -41 -23 -3 -29
-11 -43 -55 -9 -29 -20 -61 -25 -72 -4 -11 -35 -94 -68 -185 l-60 -165 -54 -3
c-63 -3 -55 -13 -103 128 -13 41 -47 136 -74 210 -44 123 -51 135 -75 138 -23
3 -26 8 -26 43 l0 39 110 0 110 0 0 -40z"/>
</g>
</svg>
